# xmcd
#
# Track frame offsets: 
#        183
#        18803
#        37715
#        59058
#        78955
#        94805
#        112695
#        130108
#        146068
#        163358
#        183143
#        202648
#        222338
#        237653
#
# Disc length: 3482 seconds
#
# Revision: 2
# Processed by: cddbd v1.5.2PL0 Copyright (c) Steve Scherf et al.
# Submitted via: ExactAudioCopy v0.99pb5
#
DISCID=b50d980e
DTITLE=Various Artist - Soul dancing
DYEAR=1989
DGENRE=Pop
TTITLE0=Five Star - System addict
TTITLE1=Billy Ocean - When the going gets tough, the tough get going
TTITLE2=James Brown - Living in America
TTITLE3=Denise La Sale - My toot toot
TTITLE4=Leon Haywood - Don't push it don't force it
TTITLE5=Millie Jackson - Hot! Wild! Unrestricted crazy love
TTITLE6=Odyssey - Use it up and wear it out
TTITLE7=Kool and The Gang - Ooh, la, la (lets go dancin')
TTITLE8=Cameo - She's strange
TTITLE9=Dee C.Lee - See the day
TTITLE10=Deniece Williams - Let's hear it for the boy
TTITLE11=Amii Stewart - Friends
TTITLE12=Ruby Turner - Signed, sealed, delivered I'm yours
TTITLE13=The Isley Brothers - It's disco night (rock don't stop)
EXTD=1998 KNIGHT RECORDS LTD.\nHEART AND SOUL
EXTT0=
EXTT1=
EXTT2=
EXTT3=
EXTT4=
EXTT5=
EXTT6=
EXTT7=
EXTT8=
EXTT9=
EXTT10=
EXTT11=
EXTT12=
EXTT13=
PLAYORDER=
